<svg width="792.1165039062499px" height="122px" xmlns="http://www.w3.org/2000/svg" viewBox="-146.05825195312497 14 792.1165039062499 122" style="background: rgba(0, 0, 0, 0);" preserveAspectRatio="xMidYMid"><defs>
  <filter id="editing-scratch" x="-100%" y="-100%" width="300%" height="300%">
    <!-- COLOR -->
    <feFlood flood-color="#ddd" flood-opacity="0.75" result="COLOR-blu"></feFlood>
    <feFlood flood-color="#666" flood-opacity="0.4" result="COLOR-red"></feFlood>
    <!-- COLOR END -->

    <!-- Texture -->
    <feTurbulence baseFrequency=".05" type="fractalNoise" numOctaves="3" seed="0" result="Texture_10"></feTurbulence>
    <feColorMatrix type="matrix" values="0 0 0 0 0,
    0 0 0 0 0,
    0 0 0 0 0,
    0 0 0 -2.1 1.1" in="Texture_10" result="Texture_20"></feColorMatrix>

    <feColorMatrix result="Texture_30" type="matrix" values="0 0 0 0 0,
    0 0 0 0 0,
    0 0 0 0 0,
    0 0 0 -1.7 1.8" in="Texture_10"></feColorMatrix>
    <!-- Texture -->

    <!-- FILL -->
    <feOffset dx="-3" dy="4" in="SourceAlpha" result="FILL_10"></feOffset>
    <feDisplacementMap scale="17" in="FILL_10" in2="Texture_10" result="FILL_20"></feDisplacementMap>
    <feComposite operator="in" in="Texture_30" in2="FILL_20" result="FILL_40"></feComposite>
    <feComposite operator="in" in="COLOR-blu" in2="FILL_40" result="FILL_50"></feComposite>
    <!-- FILL END-->

    <!-- OUTLINE -->
    <feMorphology operator="dilate" radius="3" in="SourceGraphic" result="OUTLINE_10"></feMorphology>
    <feComposite operator="out" in="OUTLINE_10" in2="SourceGraphic" result="OUTLINE_20"></feComposite>
    <feDisplacementMap scale="7" in="OUTLINE_20" in2="Texture_10" result="OUTLINE_30"></feDisplacementMap>
    <feComposite operator="arithmetic" k2="-1" k3="1" in="Texture_20" in2="OUTLINE_30" result="OUTLINE_40"></feComposite>
    <!-- OUTLINE END-->

    <!-- BEVEL OUTLINE -->
    <feConvolveMatrix order="8,8" divisor="1" kernelMatrix="1 0 0 0 0 0 0 0 0 1 0 0 0 0 0 0 0 0 1 0 0 0 0 0 0 0 0 1 0 0 0 0 0 0 0 0 1 0 0 0 0 0 0 0 0 1 0 0 0 0 0 0 0 0 1 0 0 0 0 0 0 0 0 1 " in="SourceGraphic" result="BEVEL_10"></feConvolveMatrix>
    <feMorphology operator="dilate" radius="2" in="BEVEL_10" result="BEVEL_20"></feMorphology>
    <feComposite operator="out" in="BEVEL_20" in2="BEVEL_10" result="BEVEL_30"></feComposite>
    <feDisplacementMap scale="7" in="BEVEL_30" in2="Texture_10" result="BEVEL_40"></feDisplacementMap>
    <feComposite operator="arithmetic" k2="-1" k3="1" in="Texture_20" in2="BEVEL_40" result="BEVEL_50"></feComposite>
    <feOffset dx="-7" dy="-7" in="BEVEL_50" result="BEVEL_60"></feOffset>
    <feComposite operator="out" in="BEVEL_60" in2="OUTLINE_10" result="BEVEL_70"></feComposite>
    <!-- BEVEL OUTLINE END -->

    <!-- BEVEL FILL -->
    <feOffset dx="-9" dy="-9" in="BEVEL_10" result="BEVEL-FILL_10"></feOffset>
    <feComposite operator="out" in="BEVEL-FILL_10" in2="OUTLINE_10" result="BEVEL-FILL_20"></feComposite>
    <feDisplacementMap scale="17" in="BEVEL-FILL_20" in2="Texture_10" result="BEVEL-FILL_30"></feDisplacementMap>
    <feComposite operator="in" in="COLOR-red" in2="BEVEL-FILL_30" result="BEVEL-FILL_50"></feComposite> <!-- -->
    <!-- BEVEL FILL END-->

    <feMerge result="merge2">
     <feMergeNode in="BEVEL-FILL_50"></feMergeNode>
     <feMergeNode in="BEVEL_70"></feMergeNode>
     <feMergeNode in="FILL_50"></feMergeNode>
      <feMergeNode in="OUTLINE_40"></feMergeNode>
    </feMerge>
  </filter>
</defs>
<g filter="url(#editing-scratch)"><g transform="translate(-34.292500734329224, 99)"><path d="M24.32-31.55L24.32-31.55L24.32-31.55Q26.43-33.92 30.08-33.92L30.08-33.92L30.08-33.92Q32.32-33.92 34.05-32.70L34.05-32.70L34.05-32.70Q35.78-31.49 35.78-29.22L35.78-29.22L35.78-29.22Q35.78-26.94 35.07-24.51L35.07-24.51L35.07-24.51Q34.37-22.08 33.28-19.58L33.28-19.58L33.28-19.58Q31.10-14.72 28.10-10.69L28.10-10.69L28.10-10.69Q23.87-4.86 19.81-1.79L19.81-1.79L19.81-1.79Q15.74 1.28 11.33 1.28L11.33 1.28L11.33 1.28Q7.74 1.28 5.57 0.45L5.57 0.45L5.57 0.45Q5.18-12.99 4.70-17.79L4.70-17.79L4.70-17.79Q4.22-22.59 3.84-25.22L3.84-25.22L3.84-25.22Q3.20-30.34 1.28-31.55L1.28-31.55L1.28-31.55Q2.75-32.83 4.19-33.38L4.19-33.38L4.19-33.38Q5.63-33.92 8.61-33.92L8.61-33.92L8.61-33.92Q11.58-33.92 13.70-31.58L13.70-31.58L13.70-31.58Q15.81-29.25 16.22-25.12L16.22-25.12L16.22-25.12Q16.64-20.99 16.64-16L16.64-16L16.64-16Q16.64-11.01 16.26-4.99L16.26-4.99L16.26-4.99Q18.24-6.40 20.35-10.69L20.35-10.69L20.35-10.69Q23.23-16.64 24.26-23.81L24.26-23.81L24.26-23.81Q24.58-25.98 24.58-28.29L24.58-28.29L24.58-28.29Q24.58-30.59 24.32-31.55ZM58.05-2.69L58.05-2.69L58.05-2.69Q54.98 1.28 47.36 1.28L47.36 1.28L47.36 1.28Q43.39 1.28 40.51-1.12L40.51-1.12L40.51-1.12Q37.63-3.52 37.63-6.98L37.63-6.98L37.63-6.98Q37.63-8.90 37.82-9.86L37.82-9.86L42.11-32.64L55.10-33.92L50.43-9.22L50.43-9.22Q50.18-7.81 50.18-6.98L50.18-6.98L50.18-6.98Q50.18-3.26 52.42-3.26L52.42-3.26L52.42-3.26Q54.91-3.26 56.70-6.66L56.70-6.66L56.70-6.66Q57.28-7.74 57.54-9.15L57.54-9.15L62.08-32.64L74.69-33.92L69.95-8.96L69.95-8.96Q69.76-8 69.76-6.98L69.76-6.98L69.76-6.98Q69.76-5.95 70.34-4.83L70.34-4.83L70.34-4.83Q70.91-3.71 72.77-3.46L72.77-3.46L72.77-3.46Q72.38-1.92 71.04-0.90L71.04-0.90L71.04-0.90Q68.22 1.28 65.18 1.28L65.18 1.28L65.18 1.28Q62.14 1.28 60.35 0.19L60.35 0.19L60.35 0.19Q58.56-0.90 58.05-2.69ZM103.81-10.82L103.81-10.82L103.81-10.82Q105.41-9.73 105.41-7.33L105.41-7.33L105.41-7.33Q105.41-4.93 104.19-3.39L104.19-3.39L104.19-3.39Q102.98-1.86 100.99-0.83L100.99-0.83L100.99-0.83Q96.90 1.28 92.48 1.28L92.48 1.28L92.48 1.28Q88.06 1.28 85.47 0.32L85.47 0.32L85.47 0.32Q82.88-0.64 81.15-2.43L81.15-2.43L81.15-2.43Q77.76-5.82 77.76-12.03L77.76-12.03L77.76-12.03Q77.76-21.70 83.01-27.58L83.01-27.58L83.01-27.58Q88.64-33.92 98.43-33.92L98.43-33.92L98.43-33.92Q104.51-33.92 107.52-31.36L107.52-31.36L107.52-31.36Q109.76-29.44 109.76-26.30L109.76-26.30L109.76-26.30Q109.76-15.04 90.30-15.04L90.30-15.04L90.30-15.04Q90.05-13.38 90.05-11.97L90.05-11.97L90.05-11.97Q90.05-9.02 91.36-7.90L91.36-7.90L91.36-7.90Q92.67-6.78 95.10-6.78L95.10-6.78L95.10-6.78Q97.54-6.78 100.13-7.90L100.13-7.90L100.13-7.90Q102.72-9.02 103.81-10.82ZM90.75-17.79L90.75-17.79L90.75-17.79Q95.30-17.79 97.92-20.61L97.92-20.61L97.92-20.61Q100.54-23.30 100.54-27.58L100.54-27.58L100.54-27.58Q100.54-29.06 100.00-29.86L100.00-29.86L100.00-29.86Q99.46-30.66 98.37-30.66L98.37-30.66L98.37-30.66Q97.28-30.66 96.35-30.24L96.35-30.24L96.35-30.24Q95.42-29.82 94.46-28.42L94.46-28.42L94.46-28.42Q92.10-25.22 90.75-17.79ZM114.30-10.37L114.30-10.37L114.30-10.37Q112.26-11.84 112.26-14.66L112.26-14.66L112.26-14.66Q112.26-16.19 113.02-17.44L113.02-17.44L113.02-17.44Q113.79-18.69 115.33-18.88L115.33-18.88L127.94-18.88L127.94-18.88Q130.05-18.88 130.69-20.16L130.69-20.16L130.69-20.16Q131.71-19.58 132.16-18.37L132.16-18.37L132.16-18.37Q132.61-17.15 132.61-15.87L132.61-15.87L132.61-15.87Q132.61-14.59 131.62-13.34L131.62-13.34L131.62-13.34Q130.62-12.10 129.15-11.97L129.15-11.97L117.44-11.97L117.44-11.97Q116.10-11.97 115.46-11.55L115.46-11.55L115.46-11.55Q114.82-11.14 114.30-10.37ZM152.38-3.52L152.38-3.52L152.38-3.52Q150.40 1.28 144.06 1.28L144.06 1.28L144.06 1.28Q140.80 1.28 138.75-0.96L138.75-0.96L138.75-0.96Q137.02-2.94 137.02-4.93L137.02-4.93L137.02-4.93Q137.02-10.11 139.39-20.22L139.39-20.22L141.76-32.64L154.75-33.92L150.85-13.70L150.85-13.70Q149.76-8.96 149.76-7.30L149.76-7.30L149.76-7.30Q149.76-3.65 152.38-3.52ZM142.91-41.54L142.91-41.54L142.91-41.54Q142.91-44.03 144.99-45.38L144.99-45.38L144.99-45.38Q147.07-46.72 150.08-46.72L150.08-46.72L150.08-46.72Q153.09-46.72 154.91-45.38L154.91-45.38L154.91-45.38Q156.74-44.03 156.74-41.54L156.74-41.54L156.74-41.54Q156.74-39.04 154.72-37.76L154.72-37.76L154.72-37.76Q152.70-36.48 149.70-36.48L149.70-36.48L149.70-36.48Q146.69-36.48 144.80-37.76L144.80-37.76L144.80-37.76Q142.91-39.04 142.91-41.54ZM184.90 1.28L184.90 1.28L184.90 1.28Q177.15 1.28 177.15-4.74L177.15-4.74L177.15-4.74Q177.22-6.40 177.73-9.22L177.73-9.22L178.88-15.10L178.88-15.10Q180.61-23.42 180.61-25.28L180.61-25.28L180.61-25.28Q180.61-28.99 178.43-28.99L178.43-28.99L178.43-28.99Q174.78-28.99 172.86-19.46L172.86-19.46L169.09 0L156.22 1.28L162.88-32.70L173.38-33.92L172.35-27.65L172.35-27.65Q175.36-33.92 184.58-33.92L184.58-33.92L184.58-33.92Q189.06-33.92 190.94-32.03L190.94-32.03L190.94-32.03Q192.83-30.14 192.83-25.92L192.83-25.92L192.83-25.92Q192.83-21.95 190.78-12.67L190.78-12.67L190.78-12.67Q189.82-8.51 189.82-6.94L189.82-6.94L189.82-6.94Q189.82-5.38 190.69-4.48L190.69-4.48L190.69-4.48Q191.55-3.58 192.83-3.46L192.83-3.46L192.83-3.46Q192.19-1.28 189.98 0L189.98 0L189.98 0Q187.78 1.28 184.90 1.28ZM222.91-37.12L222.91-37.12L222.91-37.12Q223.81-38.66 223.81-40.32L223.81-40.32L223.81-40.32Q223.81-43.26 222.02-43.26L222.02-43.26L222.02-43.26Q219.26-43.26 218.11-37.63L218.11-37.63L217.15-32.64L222.98-32.64L222.59-29.76L216.58-29.76L210.82 0L197.89 1.28L204.03-29.76L199.49-29.76L200.06-32.64L204.54-32.64L205.89-37.70L205.89-37.70Q207.04-42.37 211.97-44.54L211.97-44.54L211.97-44.54Q215.55-46.08 221.57-46.08L221.57-46.08L221.57-46.08Q227.58-46.08 230.27-44.54L230.27-44.54L230.27-44.54Q232.96-43.01 232.96-40.96L232.96-40.96L232.96-40.96Q232.96-38.91 231.36-37.63L231.36-37.63L231.36-37.63Q229.76-36.35 227.97-36.35L227.97-36.35L227.97-36.35Q224.45-36.35 222.91-37.12ZM243.26-3.52L243.26-3.52L243.26-3.52Q241.28 1.28 234.94 1.28L234.94 1.28L234.94 1.28Q231.68 1.28 229.63-0.96L229.63-0.96L229.63-0.96Q227.90-2.94 227.90-4.93L227.90-4.93L227.90-4.93Q227.90-10.11 230.27-20.22L230.27-20.22L232.64-32.64L245.63-33.92L241.73-13.70L241.73-13.70Q240.64-8.96 240.64-7.30L240.64-7.30L240.64-7.30Q240.64-3.65 243.26-3.52ZM233.79-41.54L233.79-41.54L233.79-41.54Q233.79-44.03 235.87-45.38L235.87-45.38L235.87-45.38Q237.95-46.72 240.96-46.72L240.96-46.72L240.96-46.72Q243.97-46.72 245.79-45.38L245.79-45.38L245.79-45.38Q247.62-44.03 247.62-41.54L247.62-41.54L247.62-41.54Q247.62-39.04 245.60-37.76L245.60-37.76L245.60-37.76Q243.58-36.48 240.58-36.48L240.58-36.48L240.58-36.48Q237.57-36.48 235.68-37.76L235.68-37.76L235.68-37.76Q233.79-39.04 233.79-41.54ZM275.78 1.28L275.78 1.28L275.78 1.28Q268.03 1.28 268.03-4.74L268.03-4.74L268.03-4.74Q268.10-6.40 268.61-9.22L268.61-9.22L269.76-15.10L269.76-15.10Q271.49-23.42 271.49-25.28L271.49-25.28L271.49-25.28Q271.49-28.99 269.31-28.99L269.31-28.99L269.31-28.99Q265.66-28.99 263.74-19.46L263.74-19.46L259.97 0L247.10 1.28L253.76-32.70L264.26-33.92L263.23-27.65L263.23-27.65Q266.24-33.92 275.46-33.92L275.46-33.92L275.46-33.92Q279.94-33.92 281.82-32.03L281.82-32.03L281.82-32.03Q283.71-30.14 283.71-25.92L283.71-25.92L283.71-25.92Q283.71-21.95 281.66-12.67L281.66-12.67L281.66-12.67Q280.70-8.51 280.70-6.94L280.70-6.94L280.70-6.94Q280.70-5.38 281.57-4.48L281.57-4.48L281.57-4.48Q282.43-3.58 283.71-3.46L283.71-3.46L283.71-3.46Q283.07-1.28 280.86 0L280.86 0L280.86 0Q278.66 1.28 275.78 1.28ZM304.19-3.52L304.19-3.52L304.19-3.52Q302.21 1.28 295.87 1.28L295.87 1.28L295.87 1.28Q292.61 1.28 290.56-0.96L290.56-0.96L290.56-0.96Q288.83-2.94 288.83-4.93L288.83-4.93L288.83-4.93Q288.83-10.11 291.20-20.22L291.20-20.22L293.57-32.64L306.56-33.92L302.66-13.70L302.66-13.70Q301.57-8.96 301.57-7.30L301.57-7.30L301.57-7.30Q301.57-3.65 304.19-3.52ZM294.72-41.54L294.72-41.54L294.72-41.54Q294.72-44.03 296.80-45.38L296.80-45.38L296.80-45.38Q298.88-46.72 301.89-46.72L301.89-46.72L301.89-46.72Q304.90-46.72 306.72-45.38L306.72-45.38L306.72-45.38Q308.54-44.03 308.54-41.54L308.54-41.54L308.54-41.54Q308.54-39.04 306.53-37.76L306.53-37.76L306.53-37.76Q304.51-36.48 301.50-36.48L301.50-36.48L301.50-36.48Q298.50-36.48 296.61-37.76L296.61-37.76L296.61-37.76Q294.72-39.04 294.72-41.54ZM310.66-6.40L310.66-6.40L310.66-6.40Q310.66-8.13 311.55-12.48L311.55-12.48L314.94-29.76L311.17-29.76L311.42-31.68L311.42-31.68Q319.10-33.98 326.53-39.62L326.53-39.62L329.60-39.62L328.06-32.64L333.06-32.64L332.48-29.76L327.55-29.76L324.29-12.48L324.29-12.48Q323.46-8.51 323.46-7.17L323.46-7.17L323.46-7.17Q323.46-4.10 326.14-3.46L326.14-3.46L326.14-3.46Q325.50-1.28 323.20 0L323.20 0L323.20 0Q320.90 1.28 317.63 1.28L317.63 1.28L317.63 1.28Q314.37 1.28 312.51-0.77L312.51-0.77L312.51-0.77Q310.66-2.82 310.66-6.40ZM358.40-10.82L358.40-10.82L358.40-10.82Q360.00-9.73 360.00-7.33L360.00-7.33L360.00-7.33Q360.00-4.93 358.78-3.39L358.78-3.39L358.78-3.39Q357.57-1.86 355.58-0.83L355.58-0.83L355.58-0.83Q351.49 1.28 347.07 1.28L347.07 1.28L347.07 1.28Q342.66 1.28 340.06 0.32L340.06 0.32L340.06 0.32Q337.47-0.64 335.74-2.43L335.74-2.43L335.74-2.43Q332.35-5.82 332.35-12.03L332.35-12.03L332.35-12.03Q332.35-21.70 337.60-27.58L337.60-27.58L337.60-27.58Q343.23-33.92 353.02-33.92L353.02-33.92L353.02-33.92Q359.10-33.92 362.11-31.36L362.11-31.36L362.11-31.36Q364.35-29.44 364.35-26.30L364.35-26.30L364.35-26.30Q364.35-15.04 344.90-15.04L344.90-15.04L344.90-15.04Q344.64-13.38 344.64-11.97L344.64-11.97L344.64-11.97Q344.64-9.02 345.95-7.90L345.95-7.90L345.95-7.90Q347.26-6.78 349.70-6.78L349.70-6.78L349.70-6.78Q352.13-6.78 354.72-7.90L354.72-7.90L354.72-7.90Q357.31-9.02 358.40-10.82ZM345.34-17.79L345.34-17.79L345.34-17.79Q349.89-17.79 352.51-20.61L352.51-20.61L352.51-20.61Q355.14-23.30 355.14-27.58L355.14-27.58L355.14-27.58Q355.14-29.06 354.59-29.86L354.59-29.86L354.59-29.86Q354.05-30.66 352.96-30.66L352.96-30.66L352.96-30.66Q351.87-30.66 350.94-30.24L350.94-30.24L350.94-30.24Q350.02-29.82 349.06-28.42L349.06-28.42L349.06-28.42Q346.69-25.22 345.34-17.79ZM368.90-10.37L368.90-10.37L368.90-10.37Q366.85-11.84 366.85-14.66L366.85-14.66L366.85-14.66Q366.85-16.19 367.62-17.44L367.62-17.44L367.62-17.44Q368.38-18.69 369.92-18.88L369.92-18.88L382.53-18.88L382.53-18.88Q384.64-18.88 385.28-20.16L385.28-20.16L385.28-20.16Q386.30-19.58 386.75-18.37L386.75-18.37L386.75-18.37Q387.20-17.15 387.20-15.87L387.20-15.87L387.20-15.87Q387.20-14.59 386.21-13.34L386.21-13.34L386.21-13.34Q385.22-12.10 383.74-11.97L383.74-11.97L372.03-11.97L372.03-11.97Q370.69-11.97 370.05-11.55L370.05-11.55L370.05-11.55Q369.41-11.14 368.90-10.37ZM410.75-22.46L410.75-22.46L410.75-22.46Q411.65-24.83 411.65-26.88L411.65-26.88L411.65-26.88Q411.65-30.66 408.58-30.66L408.58-30.66L408.58-30.66Q406.98-30.66 405.66-29.22L405.66-29.22L405.66-29.22Q404.35-27.78 404.35-25.98L404.35-25.98L404.35-25.98Q404.35-24.70 405.38-23.68L405.38-23.68L405.38-23.68Q406.85-22.27 410.62-19.97L410.62-19.97L410.62-19.97Q414.40-17.66 415.84-15.78L415.84-15.78L415.84-15.78Q417.28-13.89 417.28-11.30L417.28-11.30L417.28-11.30Q417.28-8.70 416.03-6.34L416.03-6.34L416.03-6.34Q414.78-3.97 412.54-2.30L412.54-2.30L412.54-2.30Q407.74 1.28 400.06 1.28L400.06 1.28L400.06 1.28Q395.90 1.28 392.70-0.90L392.70-0.90L392.70-0.90Q389.50-3.01 389.50-5.50L389.50-5.50L389.50-5.50Q389.50-8 391.33-9.47L391.33-9.47L391.33-9.47Q393.15-10.94 395.84-10.94L395.84-10.94L395.84-10.94Q398.53-10.94 400.19-9.92L400.19-9.92L400.19-9.92Q399.36-7.81 399.36-6.40L399.36-6.40L399.36-6.40Q399.36-2.18 402.94-2.18L402.94-2.18L402.94-2.18Q404.48-2.18 405.50-3.14L405.50-3.14L405.50-3.14Q406.53-4.10 406.53-5.76L406.53-5.76L406.53-5.76Q406.53-9.02 401.02-12.48L401.02-12.48L401.02-12.48Q396.54-15.42 395.52-16.58L395.52-16.58L395.52-16.58Q393.79-18.62 393.79-21.18L393.79-21.18L393.79-21.18Q393.79-23.74 395.01-26.18L395.01-26.18L395.01-26.18Q396.22-28.61 398.46-30.34L398.46-30.34L398.46-30.34Q403.14-33.92 411.26-33.92L411.26-33.92L411.26-33.92Q415.42-33.92 417.89-32.26L417.89-32.26L417.89-32.26Q420.35-30.59 420.35-27.78L420.35-27.78L420.35-27.78Q420.35-24.96 418.66-23.36L418.66-23.36L418.66-23.36Q416.96-21.76 413.89-21.76L413.89-21.76L413.89-21.76Q411.78-21.76 410.75-22.46ZM454.14-26.62L454.14-26.62L454.14-26.62Q454.14-23.94 451.90-22.27L451.90-22.27L451.90-22.27Q449.66-20.61 446.02-20.61L446.02-20.61L446.02-20.61Q444.48-20.61 443.58-21.06L443.58-21.06L443.58-21.06Q444.29-22.72 444.51-24.80L444.51-24.80L444.51-24.80Q444.74-26.88 444.74-27.46L444.74-27.46L444.74-27.46Q444.74-30.14 442.88-30.14L442.88-30.14L442.88-30.14Q441.60-30.14 440.16-28.54L440.16-28.54L440.16-28.54Q438.72-26.94 437.50-24.45L437.50-24.45L437.50-24.45Q434.82-18.69 434.82-12.86L434.82-12.86L434.82-12.86Q434.82-9.66 436.03-8.22L436.03-8.22L436.03-8.22Q437.25-6.78 439.94-6.78L439.94-6.78L439.94-6.78Q443.65-6.78 446.59-9.86L446.59-9.86L446.59-9.86Q447.42-10.82 447.87-11.90L447.87-11.90L447.87-11.90Q450.30-10.62 450.30-7.10L450.30-7.10L450.30-7.10Q450.30-3.52 446.34-1.15L446.34-1.15L446.34-1.15Q442.24 1.28 435.71 1.28L435.71 1.28L435.71 1.28Q422.72 1.28 422.72-12.48L422.72-12.48L422.72-12.48Q422.72-22.53 428.42-28.29L428.42-28.29L428.42-28.29Q433.92-33.92 444.03-33.92L444.03-33.92L444.03-33.92Q454.14-33.92 454.14-26.62ZM475.90-17.98L475.90-17.98L475.90-17.98Q478.21-22.08 478.21-26.24L478.21-26.24L478.21-26.24Q478.21-28.99 476.22-28.99L476.22-28.99L476.22-28.99Q474.69-28.99 473.09-26.37L473.09-26.37L473.09-26.37Q471.42-23.74 470.91-20.35L470.91-20.35L467.58 0L454.34 1.28L460.86-32.64L471.42-33.92L470.27-27.46L470.27-27.46Q473.41-33.92 480.45-33.92L480.45-33.92L480.45-33.92Q484.16-33.92 486.18-32L486.18-32L486.18-32Q488.19-30.08 488.19-26.14L488.19-26.14L488.19-26.14Q488.19-22.21 485.60-19.71L485.60-19.71L485.60-19.71Q483.01-17.22 478.59-17.22L478.59-17.22L478.59-17.22Q476.67-17.22 475.90-17.98ZM503.17 1.28L503.17 1.28L503.17 1.28Q489.09 1.28 489.09-11.97L489.09-11.97L489.09-11.97Q489.09-21.38 494.27-27.46L494.27-27.46L494.27-27.46Q499.78-33.92 509.31-33.92L509.31-33.92L509.31-33.92Q516.22-33.92 519.74-30.72L519.74-30.72L519.74-30.72Q523.26-27.52 523.26-20.80L523.26-20.80L523.26-20.80Q523.26-10.56 517.76-4.61L517.76-4.61L517.76-4.61Q512.38 1.28 503.17 1.28ZM504.83-26.56L504.83-26.56L504.83-26.56Q504.06-24.83 503.46-22.24L503.46-22.24L503.46-22.24Q502.85-19.65 502.08-15.55L502.08-15.55L502.08-15.55Q501.31-11.46 501.31-6.40L501.31-6.40L501.31-6.40Q501.31-4.74 501.86-3.65L501.86-3.65L501.86-3.65Q502.40-2.56 503.87-2.56L503.87-2.56L503.87-2.56Q505.34-2.56 506.27-3.26L506.27-3.26L506.27-3.26Q507.20-3.97 507.90-5.63L507.90-5.63L507.90-5.63Q509.18-8.58 510.21-14.05L510.21-14.05L510.21-14.05Q511.23-19.52 511.33-21.89L511.33-21.89L511.33-21.89Q511.42-24.26 511.42-26.02L511.42-26.02L511.42-26.02Q511.42-27.78 510.91-28.93L510.91-28.93L510.91-28.93Q510.40-30.08 508.96-30.08L508.96-30.08L508.96-30.08Q507.52-30.08 506.56-29.18L506.56-29.18L506.56-29.18Q505.60-28.29 504.83-26.56ZM542.34-3.52L542.34-3.52L542.34-3.52Q540.35 1.28 534.02 1.28L534.02 1.28L534.02 1.28Q530.82 1.28 528.77-0.96L528.77-0.96L528.77-0.96Q527.10-2.82 527.10-4.93L527.10-4.93L527.10-4.93Q527.10-9.73 529.34-20.22L529.34-20.22L534.02-44.80L547.01-46.08L540.80-13.70L540.80-13.70Q539.71-8.96 539.71-7.30L539.71-7.30L539.71-7.30Q539.71-3.65 542.34-3.52ZM563.07-3.52L563.07-3.52L563.07-3.52Q561.09 1.28 554.75 1.28L554.75 1.28L554.75 1.28Q551.55 1.28 549.50-0.96L549.50-0.96L549.50-0.96Q547.84-2.82 547.84-4.93L547.84-4.93L547.84-4.93Q547.84-9.73 550.08-20.22L550.08-20.22L554.75-44.80L567.74-46.08L561.54-13.70L561.54-13.70Q560.45-8.96 560.45-7.30L560.45-7.30L560.45-7.30Q560.45-3.65 563.07-3.52Z" fill="#000"></path></g></g><style>text {
  font-size: 64px;
  font-family: Arial Black;
  dominant-baseline: central;
  text-anchor: middle;
}</style></svg>